<svg xmlns="http://www.w3.org/2000/svg" xmlns:xlink="http://www.w3.org/1999/xlink" width="95.694" height="49.01" viewBox="0 0 95.694 49.01">
  <defs>
    <clipPath id="clip-path">
      <rect id="Rectangle_1" data-name="Rectangle 1" width="95.694" height="49.01" fill="#0A00A2"/>
    </clipPath>
  </defs>
  <g id="logo" transform="translate(-10.285)">
    <g id="Group_1" data-name="Group 1" transform="translate(10.285)" clip-path="url(#clip-path)">
      <path fill="#0A00A2" id="Path_1" data-name="Path 1" d="M3.39,12.976v4.389a.868.868,0,0,0,.221.663,1.086,1.086,0,0,0,.745.2H5.421v1.933H3.98q-2.9,0-2.9-2.817V12.976H0V11.093H1.081V8.849H3.39v2.244H5.421v1.883Z" transform="translate(0 -8.046)"/>
      <path fill="#0A00A2" id="Path_2" data-name="Path 2" d="M90.375,3.366a3.109,3.109,0,0,1,1.253,1.327,4.556,4.556,0,0,1,.45,2.1V12.12H89.786V7.108a2.353,2.353,0,0,0-.54-1.662,1.915,1.915,0,0,0-1.474-.581,1.962,1.962,0,0,0-1.5.581,2.33,2.33,0,0,0-.549,1.662V12.12H83.431V0h2.293V4.176A2.99,2.99,0,0,1,86.9,3.251a3.908,3.908,0,0,1,1.638-.336,3.685,3.685,0,0,1,1.834.45" transform="translate(-75.865)"/>
      <path fill="#0A00A2" id="Path_3" data-name="Path 3" d="M10.4,228.451H3.771a2.255,2.255,0,0,0,.688,1.54,2.121,2.121,0,0,0,1.49.557,1.872,1.872,0,0,0,1.818-1.1H10.24A4.132,4.132,0,0,1,8.733,231.6,4.4,4.4,0,0,1,6,232.447a4.731,4.731,0,0,1-2.35-.581,4.089,4.089,0,0,1-1.622-1.646,5.043,5.043,0,0,1-.581-2.457,5.136,5.136,0,0,1,.573-2.473,4,4,0,0,1,1.6-1.638A4.808,4.808,0,0,1,6,223.079a4.772,4.772,0,0,1,2.317.557,3.92,3.92,0,0,1,1.589,1.58,4.784,4.784,0,0,1,.565,2.35,5.447,5.447,0,0,1-.065.884m-2.309-1.539a1.819,1.819,0,0,0-.639-1.417,2.263,2.263,0,0,0-1.523-.532,2.081,2.081,0,0,0-1.433.516,2.268,2.268,0,0,0-.713,1.433Z" transform="translate(-1.314 -202.848)"/>
      <path fill="#0A00A2" id="Path_4" data-name="Path 4" d="M358.038,228.451H351.4a2.255,2.255,0,0,0,.688,1.54,2.121,2.121,0,0,0,1.49.557,1.872,1.872,0,0,0,1.818-1.1h2.473a4.132,4.132,0,0,1-1.507,2.154,4.4,4.4,0,0,1-2.735.843,4.731,4.731,0,0,1-2.35-.581,4.088,4.088,0,0,1-1.621-1.646,5.042,5.042,0,0,1-.581-2.457,5.136,5.136,0,0,1,.573-2.473,4,4,0,0,1,1.6-1.638,5.154,5.154,0,0,1,4.692-.016,3.921,3.921,0,0,1,1.589,1.58,4.783,4.783,0,0,1,.565,2.35,5.438,5.438,0,0,1-.066.884m-2.309-1.539a1.819,1.819,0,0,0-.639-1.417,2.264,2.264,0,0,0-1.523-.532,2.081,2.081,0,0,0-1.433.516,2.269,2.269,0,0,0-.713,1.433Z" transform="translate(-317.421 -202.848)"/>
      <path fill="#0A00A2" id="Path_5" data-name="Path 5" d="M475.868,223.668a3.212,3.212,0,0,1,1.63-.409v2.408h-.606a1.912,1.912,0,0,0-2.178,2.276v4.52h-2.293V223.39h2.293V224.8a3.224,3.224,0,0,1,1.155-1.13" transform="translate(-429.577 -203.012)"/>
      <path fill="#0A00A2" id="Path_6" data-name="Path 6" d="M548.488,185.469a1.345,1.345,0,0,1,0-1.916,1.511,1.511,0,0,1,2.015,0,1.344,1.344,0,0,1,0,1.916,1.511,1.511,0,0,1-2.015,0m2.138,10.539h-2.293v-9.073h2.293Z" transform="translate(-498.381 -166.557)"/>
      <path fill="#0A00A2" id="Path_7" data-name="Path 7" d="M608.875,228.451h-6.633a2.255,2.255,0,0,0,.688,1.54,2.12,2.12,0,0,0,1.49.557,1.872,1.872,0,0,0,1.818-1.1h2.473A4.132,4.132,0,0,1,607.2,231.6a4.4,4.4,0,0,1-2.735.843,4.731,4.731,0,0,1-2.35-.581,4.088,4.088,0,0,1-1.621-1.646,5.042,5.042,0,0,1-.581-2.457,5.136,5.136,0,0,1,.573-2.473,4,4,0,0,1,1.6-1.638,5.153,5.153,0,0,1,4.692-.016,3.921,3.921,0,0,1,1.589,1.58,4.784,4.784,0,0,1,.565,2.35,5.435,5.435,0,0,1-.066.884m-2.309-1.539a1.819,1.819,0,0,0-.639-1.417,2.264,2.264,0,0,0-1.523-.532,2.081,2.081,0,0,0-1.433.516,2.269,2.269,0,0,0-.713,1.433Z" transform="translate(-545.51 -202.848)"/>
      <path fill="#0A00A2" id="Path_8" data-name="Path 8" d="M730.907,224.283a3.919,3.919,0,0,1,1,2.858v5.323h-2.293v-5.012a2.353,2.353,0,0,0-.54-1.662,1.915,1.915,0,0,0-1.474-.581,1.962,1.962,0,0,0-1.5.581,2.33,2.33,0,0,0-.549,1.662v5.012h-2.293V223.39h2.293v1.13a3.167,3.167,0,0,1,1.171-.925,3.624,3.624,0,0,1,1.564-.336,3.5,3.5,0,0,1,2.621,1.024" transform="translate(-657.667 -203.012)"/>
      <path fill="#0A00A2" id="Path_9" data-name="Path 9" d="M842.117,225.3a4.1,4.1,0,0,1,1.589-1.638,4.6,4.6,0,0,1,2.326-.581,4.472,4.472,0,0,1,2.792.843,4.1,4.1,0,0,1,1.482,2.366h-2.473a1.808,1.808,0,0,0-.663-.925,1.927,1.927,0,0,0-1.155-.336,1.891,1.891,0,0,0-1.556.712,3.826,3.826,0,0,0,0,4.029,1.891,1.891,0,0,0,1.556.712,1.739,1.739,0,0,0,1.818-1.245h2.473a4.187,4.187,0,0,1-1.49,2.342,4.391,4.391,0,0,1-2.784.868,4.6,4.6,0,0,1-2.326-.581,4.1,4.1,0,0,1-1.589-1.638,5.586,5.586,0,0,1,0-4.93" transform="translate(-765.224 -202.848)"/>
      <path fill="#0A00A2" id="Path_10" data-name="Path 10" d="M964.636,228.451H958a2.255,2.255,0,0,0,.688,1.54,2.121,2.121,0,0,0,1.49.557,1.872,1.872,0,0,0,1.818-1.1h2.473a4.131,4.131,0,0,1-1.507,2.154,4.4,4.4,0,0,1-2.735.843,4.731,4.731,0,0,1-2.35-.581,4.089,4.089,0,0,1-1.621-1.646,5.042,5.042,0,0,1-.581-2.457,5.137,5.137,0,0,1,.573-2.473,4,4,0,0,1,1.6-1.638,5.153,5.153,0,0,1,4.692-.016,3.921,3.921,0,0,1,1.589,1.58,4.784,4.784,0,0,1,.565,2.35,5.435,5.435,0,0,1-.066.884m-2.309-1.539a1.819,1.819,0,0,0-.639-1.417,2.264,2.264,0,0,0-1.523-.532,2.08,2.08,0,0,0-1.433.516,2.269,2.269,0,0,0-.713,1.433Z" transform="translate(-869.007 -202.848)"/>
      <path fill="#0A00A2" id="Path_11" data-name="Path 11" d="M395.276,403.971h-1.589v7.19h-2.325v-7.19H390.33v-1.883h1.032v-.459a3.008,3.008,0,0,1,.95-2.457,4.244,4.244,0,0,1,2.866-.737v1.933a1.7,1.7,0,0,0-1.163.278,1.394,1.394,0,0,0-.328,1.065v.377h1.589Z" transform="translate(-354.931 -362.298)"/>
      <path fill="#0A00A2" id="Path_12" data-name="Path 12" d="M463,403.971h-1.589v7.19h-2.325v-7.19h-1.032v-1.883h1.032v-.459a3.008,3.008,0,0,1,.95-2.457,4.244,4.244,0,0,1,2.866-.737v1.933a1.7,1.7,0,0,0-1.163.278,1.394,1.394,0,0,0-.328,1.065v.377H463Z" transform="translate(-416.509 -362.298)"/>
      <path fill="#0A00A2" id="Path_13" data-name="Path 13" d="M532.13,399.5a1.344,1.344,0,0,1,0-1.916,1.51,1.51,0,0,1,2.015,0,1.345,1.345,0,0,1,0,1.916,1.51,1.51,0,0,1-2.015,0m2.137,10.539h-2.293v-9.073h2.293Z" transform="translate(-483.507 -361.178)"/>
      <path fill="#0A00A2" id="Path_14" data-name="Path 14" d="M584.13,439.329a4.1,4.1,0,0,1,1.589-1.638,4.6,4.6,0,0,1,2.326-.581,4.471,4.471,0,0,1,2.792.844,4.1,4.1,0,0,1,1.482,2.366h-2.473a1.809,1.809,0,0,0-.663-.925,1.927,1.927,0,0,0-1.155-.336,1.891,1.891,0,0,0-1.556.712,3.826,3.826,0,0,0,0,4.029,1.891,1.891,0,0,0,1.556.712,1.739,1.739,0,0,0,1.818-1.245h2.473a4.188,4.188,0,0,1-1.49,2.342,4.392,4.392,0,0,1-2.784.868,4.594,4.594,0,0,1-2.326-.581,4.1,4.1,0,0,1-1.589-1.638,5.586,5.586,0,0,1,0-4.93" transform="translate(-530.634 -397.469)"/>
      <path fill="#0A00A2" id="Path_15" data-name="Path 15" d="M706.649,442.483h-6.633a2.255,2.255,0,0,0,.688,1.54,2.12,2.12,0,0,0,1.49.557,1.872,1.872,0,0,0,1.818-1.1h2.473a4.131,4.131,0,0,1-1.507,2.154,4.4,4.4,0,0,1-2.735.843,4.731,4.731,0,0,1-2.35-.581,4.089,4.089,0,0,1-1.621-1.646,5.042,5.042,0,0,1-.581-2.457,5.137,5.137,0,0,1,.573-2.473,4,4,0,0,1,1.6-1.638,5.153,5.153,0,0,1,4.692-.016,3.92,3.92,0,0,1,1.589,1.58,4.784,4.784,0,0,1,.565,2.35,5.434,5.434,0,0,1-.066.884m-2.309-1.539a1.819,1.819,0,0,0-.639-1.417,2.264,2.264,0,0,0-1.523-.532,2.081,2.081,0,0,0-1.433.516,2.268,2.268,0,0,0-.713,1.433Z" transform="translate(-634.417 -397.469)"/>
      <path fill="#0A00A2" id="Path_16" data-name="Path 16" d="M297.468,437.691a5.14,5.14,0,0,0-4.749,0,4.4,4.4,0,0,0-.46.291l1.21,1.768a2.178,2.178,0,0,1,1.592-.642,2.235,2.235,0,0,1,1.662.7,2.733,2.733,0,0,1,.68,1.99,3.062,3.062,0,0,1-.328,1.474,2.261,2.261,0,0,1-.669.776l1.2,1.75a4.365,4.365,0,0,0,1.527-1.543,4.73,4.73,0,0,0,.631-2.457,4.828,4.828,0,0,0-.614-2.457,4.271,4.271,0,0,0-1.679-1.646" transform="translate(-265.754 -397.469)"/>
      <path fill="#0A00A2" id="Path_17" data-name="Path 17" d="M231.252,232.038a3.663,3.663,0,0,0,1.761.409,3.884,3.884,0,0,0,2.1-.59,4.128,4.128,0,0,0,1.49-1.662,5.339,5.339,0,0,0,.549-2.465,5.24,5.24,0,0,0-.549-2.448,4.035,4.035,0,0,0-1.49-1.63,3.969,3.969,0,0,0-2.1-.573,3.7,3.7,0,0,0-1.777.418,3.483,3.483,0,0,0-1.22,1.04v-1.31h-2.293v11.58l2.293,3.352v-7.152a3.77,3.77,0,0,0,1.236,1.032m-.9-5.7a2.368,2.368,0,0,1,.884-.925,2.29,2.29,0,0,1,1.171-.319,2.368,2.368,0,0,1,1.187.311,2.327,2.327,0,0,1,.884.909,2.85,2.85,0,0,1,.336,1.417,2.931,2.931,0,0,1-.336,1.441,2.432,2.432,0,0,1-.884.934,2.311,2.311,0,0,1-2.358.008,2.366,2.366,0,0,1-.884-.925,3.192,3.192,0,0,1,0-2.85" transform="translate(-207.071 -202.848)"/>
      <path fill="#0A00A2" id="Path_18" data-name="Path 18" d="M203.92,40.752a4.422,4.422,0,0,0,.911.382l1.031-1.726a2.06,2.06,0,0,1-1.131-.532,2.255,2.255,0,0,1-.688-1.539H207.1l.92-1.54h-3.96a2.268,2.268,0,0,1,.713-1.433,2.081,2.081,0,0,1,1.433-.516,2.264,2.264,0,0,1,1.523.532,1.751,1.751,0,0,1,.578.936l1.237-2.071a3.957,3.957,0,0,0-.955-.723,5.154,5.154,0,0,0-4.692.016,4,4,0,0,0-1.6,1.638,5.136,5.136,0,0,0-.573,2.473,5.042,5.042,0,0,0,.581,2.457,4.088,4.088,0,0,0,1.621,1.646" transform="translate(-183.423 -29.066)"/>
      <path fill="#0A00A2" id="Path_19" data-name="Path 19" d="M119.782,233.778l-1.867-2.817-1.654,2.817H113.8l2.964-4.553-3-4.52h2.588l1.851,2.8,1.67-2.8h2.457l-2.981,4.52,3.013,4.553Z" transform="translate(-103.453 -204.326)"/>
    </g>
  </g>
</svg>
